<?xml version="1.0" encoding="utf-8"?>
<svg width="413px" height="123px" viewbox="0 0 413 123" version="1.1" xmlns:xlink="http://www.w3.org/1999/xlink" xmlns="http://www.w3.org/2000/svg">
  <defs>
    <path d="M0 0L411.024 0L411.024 121.89L0 121.89L0 0Z" id="path_1" />
    <path d="M0 9.87813C4.46608 3.88293 11.6097 0 19.6602 0C33.1912 0 44.1602 10.969 44.1602 24.5C44.1602 38.031 33.1912 49 19.6602 49" transform="matrix(0.88294756 0.46947154 -0.46947154 0.88294756 49.573944 20.35553)" id="path_2" />
    <clipPath id="clip_1">
      <use xlink:href="#path_2" />
    </clipPath>
    <clipPath id="mask_1">
      <use xlink:href="#path_1" />
    </clipPath>
  </defs>
  <g id="Group" transform="translate(0.5 0.5)">
    <g id="OpenHomoSens_Logo_Full">
      <g id="Mask-group">
        <path d="M0 0L411.024 0L411.024 121.89L0 121.89L0 0Z" id="Rectangle" fill="none" fill-rule="evenodd" stroke="none" />
        <g clip-path="url(#mask_1)">
          <g id="Group" transform="translate(25.867004 16)">
            <path d="M5.572 63.785L0 63.785L0 13.439L3.605 13.439L4.49 15.307L4.49 15.307C8.42333 13.3843 11.996 12.423 15.208 12.423L15.208 12.423L15.208 12.423C18.2893 12.423 20.9553 13.319 23.206 15.111L23.206 15.111L23.206 15.111C25.4567 16.9023 27.0737 19.0983 28.057 21.699L28.057 21.699L28.057 21.699C29.0403 24.299 29.532 27.074 29.532 30.024L29.532 30.024L29.532 30.024C29.532 35.1813 28.232 39.4697 25.632 42.889L25.632 42.889L25.632 42.889C23.0313 46.309 19.36 48.019 14.618 48.019L14.618 48.019L14.618 48.019C11.45 48.019 8.43466 47.276 5.572 45.79L5.572 45.79L5.572 63.785L5.572 63.785ZM5.57199 19.142L5.57199 41.496L5.57199 41.496C7.71333 42.6107 10.412 43.168 13.668 43.168L13.668 43.168L13.668 43.168C16.2247 43.168 18.295 42.4743 19.879 41.087L19.879 41.087L19.879 41.087C21.4637 39.699 22.529 38.0437 23.075 36.121L23.075 36.121L23.075 36.121C23.621 34.1977 23.894 31.958 23.894 29.402L23.894 29.402L23.894 29.402C23.894 25.7747 23.02 22.8027 21.272 20.486L21.272 20.486L21.272 20.486C19.524 18.17 17.35 17.012 14.75 17.012L14.75 17.012L14.75 17.012C12.062 17.012 9.00266 17.722 5.57199 19.142L5.57199 19.142L5.57199 19.142ZM36.776 30.09L36.776 30.09L36.776 30.09C36.776 24.7147 38.2073 20.4263 41.07 17.225L41.07 17.225L41.07 17.225C43.932 14.0237 47.712 12.423 52.41 12.423L52.41 12.423L52.41 12.423C61.7627 12.423 66.439 19.022 66.439 32.22L66.439 32.22L42.348 32.22L42.348 32.22C42.5667 34.9953 43.5827 37.47 45.396 39.644L45.396 39.644L45.396 39.644C47.21 41.8187 49.9743 42.906 53.689 42.906L53.689 42.906L53.689 42.906C57.9937 42.906 61.6863 42.1957 64.767 40.775L64.767 40.775L64.767 46.052L64.767 46.052C61.4023 47.3413 57.95 47.997 54.41 48.019L54.41 48.019L54.41 48.019C51.3287 48.019 48.6353 47.5383 46.33 46.577L46.33 46.577L46.33 46.577C44.0247 45.6157 42.1893 44.2937 40.824 42.611L40.824 42.611L40.824 42.611C39.458 40.9283 38.4417 39.038 37.775 36.94L37.775 36.94L37.775 36.94C37.109 34.8427 36.776 32.5593 36.776 30.09L36.776 30.09ZM42.545 27.795L42.545 27.795L60.67 27.795L60.67 27.795C60.364 24.8017 59.5337 22.3437 58.179 20.421L58.179 20.421L58.179 20.421C56.8244 18.4977 54.8577 17.536 52.279 17.536L52.279 17.536L52.279 17.536C49.7224 17.536 47.5484 18.4757 45.757 20.355L45.757 20.355L45.757 20.355C43.965 22.2343 42.8943 24.7143 42.545 27.795L42.545 27.795ZM79.517 47.003L73.945 47.003L73.945 13.439L77.977 13.439L78.862 15.996L78.862 15.996C82.5327 13.614 86.16 12.423 89.744 12.423L89.744 12.423L89.744 12.423C93.4586 12.423 96.4686 13.308 98.774 15.078L98.774 15.078L98.774 15.078C101.079 16.848 102.232 19.5467 102.232 23.174L102.232 23.174L102.232 47.003L96.496 47.003L96.496 23.174L96.496 23.174C96.496 19.4593 94.2453 17.602 89.744 17.602L89.744 17.602L89.744 17.602C86.2473 17.602 82.8383 18.76 79.517 21.076L79.517 21.076L79.517 47.003L79.517 47.003ZM119.243 47.003L113.212 47.003L113.212 0L119.243 0L119.243 21.306L142.744 21.306L142.744 0L148.808 0L148.808 47.003L142.744 47.003L142.744 25.73L119.243 25.73L119.243 47.003L119.243 47.003ZM161.919 42.873L161.919 42.873L161.919 42.873C158.62 39.4423 156.97 35.225 156.97 30.221L156.97 30.221L156.97 30.221C156.97 25.217 158.625 20.9997 161.935 17.569L161.935 17.569L161.935 17.569C165.246 14.1383 169.49 12.423 174.669 12.423L174.669 12.423L174.669 12.423C179.826 12.423 184.082 14.1493 187.436 17.602L187.436 17.602L187.436 17.602C190.79 21.0547 192.467 25.261 192.467 30.221L192.467 30.221L192.467 30.221C192.467 35.181 190.79 39.3873 187.436 42.84L187.436 42.84L187.436 42.84C184.082 46.2927 179.826 48.019 174.669 48.019L174.669 48.019L174.669 48.019C169.468 48.019 165.218 46.3037 161.919 42.873L161.919 42.873ZM165.737 21.191L165.737 21.191L165.737 21.191C163.498 23.6277 162.378 26.6377 162.378 30.221L162.378 30.221L162.378 30.221C162.378 33.8043 163.498 36.8143 165.737 39.251L165.737 39.251L165.737 39.251C167.977 41.6877 170.954 42.906 174.669 42.906L174.669 42.906L174.669 42.906C178.34 42.906 181.307 41.6877 183.568 39.251L183.568 39.251L183.568 39.251C185.83 36.8143 186.961 33.8043 186.961 30.221L186.961 30.221L186.961 30.221C186.961 26.6377 185.83 23.6277 183.568 21.191L183.568 21.191L183.568 21.191C181.307 18.7543 178.34 17.536 174.669 17.536L174.669 17.536L174.669 17.536C170.954 17.536 167.977 18.7543 165.737 21.191L165.737 21.191ZM205.676 47.003L200.104 47.003L200.104 13.439L204.136 13.439L204.824 15.373L204.824 15.373C207.337 13.4063 210.047 12.423 212.953 12.423L212.953 12.423L212.953 12.423C214.657 12.423 216.367 12.729 218.082 13.341L218.082 13.341L218.082 13.341C219.797 13.9523 221.147 14.8153 222.13 15.93L222.13 15.93L222.13 15.93C224.731 13.614 227.659 12.445 230.915 12.423L230.915 12.423L230.915 12.423C233.559 12.423 236.001 13.084 238.24 14.406L238.24 14.406L238.24 14.406C240.48 15.728 241.6 17.5363 241.6 19.831L241.6 19.831L241.6 47.003L235.897 47.003L235.897 22.486L235.897 22.486C235.897 19.208 233.952 17.58 230.063 17.602L230.063 17.602L230.063 17.602C227.637 17.602 225.506 18.345 223.671 19.831L223.671 19.831L223.671 47.003L217.968 47.003L217.968 22.486L217.968 22.486C217.968 19.208 216.023 17.58 212.133 17.602L212.133 17.602L212.133 17.602C209.62 17.602 207.468 18.3667 205.676 19.896L205.676 19.896L205.676 47.003L205.676 47.003ZM255.498 42.873L255.498 42.873L255.498 42.873C252.198 39.4423 250.548 35.225 250.548 30.221L250.548 30.221L250.548 30.221C250.548 25.217 252.203 20.9997 255.514 17.569L255.514 17.569L255.514 17.569C258.825 14.1383 263.069 12.423 268.248 12.423L268.248 12.423L268.248 12.423C273.405 12.423 277.66 14.1493 281.015 17.602L281.015 17.602L281.015 17.602C284.369 21.0547 286.046 25.261 286.046 30.221L286.046 30.221L286.046 30.221C286.046 35.181 284.369 39.3873 281.015 42.84L281.015 42.84L281.015 42.84C277.66 46.2927 273.405 48.019 268.248 48.019L268.248 48.019L268.248 48.019C263.047 48.019 258.797 46.3037 255.498 42.873L255.498 42.873ZM259.316 21.191L259.316 21.191L259.316 21.191C257.076 23.6277 255.956 26.6377 255.956 30.221L255.956 30.221L255.956 30.221C255.956 33.8043 257.076 36.8143 259.316 39.251L259.316 39.251L259.316 39.251C261.556 41.6877 264.533 42.906 268.248 42.906L268.248 42.906L268.248 42.906C271.919 42.906 274.885 41.6877 277.147 39.251L277.147 39.251L277.147 39.251C279.408 36.8143 280.539 33.8043 280.539 30.221L280.539 30.221L280.539 30.221C280.539 26.6377 279.408 23.6277 277.147 21.191L277.147 21.191L277.147 21.191C274.885 18.7543 271.919 17.536 268.248 17.536L268.248 17.536L268.248 17.536C264.533 17.536 261.556 18.7543 259.316 21.191L259.316 21.191Z" transform="translate(63.864014 10.488007)" id="Shape" fill="#000000" fill-rule="evenodd" stroke="none" />
            <path d="M0 7.942C0 3.559 3.559 0 7.942 0C12.325 0 15.883 3.559 15.883 7.942C15.883 12.325 12.325 15.883 7.942 15.883C3.559 15.883 0 12.325 0 7.942L0 7.942ZM3.845 7.939C3.845 6.861 4.278 5.812 5.048 5.052C5.818 4.282 6.857 3.849 7.944 3.849C9.031 3.849 10.071 4.282 10.84 5.052C11.601 5.812 12.034 6.861 12.034 7.939C12.034 9.026 11.601 10.065 10.84 10.835C10.071 11.605 9.031 12.038 7.944 12.038C6.857 12.038 5.818 11.605 5.048 10.835C4.278 10.065 3.845 9.026 3.845 7.939L3.845 7.939Z" transform="translate(7.9410095 41.966003)" id="Shape" fill="#000000" fill-rule="evenodd" stroke="none" />
            <path d="M0 7.942C0 3.559 3.559 0 7.942 0C12.325 0 15.883 3.559 15.883 7.942C15.883 12.325 12.325 15.883 7.942 15.883C3.559 15.883 0 12.325 0 7.942L0 7.942ZM3.845 7.94399C3.845 6.85599 4.278 5.81699 5.048 5.04699C5.818 4.27799 6.857 3.84399 7.944 3.84399C9.031 3.84399 10.071 4.27799 10.84 5.04699C11.601 5.81699 12.034 6.85599 12.034 7.94399L12.034 7.94399C12.034 9.03099 11.601 10.07 10.84 10.84C10.071 11.6 9.031 12.033 7.944 12.033C6.857 12.033 5.818 11.6 5.048 10.84C4.278 10.07 3.845 9.03099 3.845 7.94399L3.845 7.94399Z" transform="translate(7.9410095 9.505005)" id="Shape" fill="#000000" fill-rule="evenodd" stroke="none" />
            <path d="M0 7.942C0 3.559 3.558 0 7.941 0C12.324 0 15.883 3.559 15.883 7.942C15.883 12.325 12.324 15.883 7.941 15.883C3.558 15.883 0 12.325 0 7.942L0 7.942ZM3.84799 7.94501C3.84799 6.85801 4.28099 5.81801 5.04999 5.04901C5.81099 4.27901 6.85899 3.84601 7.93699 3.84601C9.02399 3.84601 10.064 4.27901 10.833 5.04901C11.603 5.81801 12.036 6.85801 12.036 7.94501L12.036 7.94501C12.036 9.02301 11.603 10.071 10.833 10.832C10.064 11.601 9.02399 12.034 7.93699 12.034C6.85899 12.034 5.81099 11.601 5.04999 10.832C4.28099 10.071 3.84799 9.02301 3.84799 7.94501L3.84799 7.94501Z" transform="translate(0 26.083008)" id="Shape" fill="#000000" fill-rule="evenodd" stroke="none" />
            <path d="M36.54 19.81L36.54 19.81L36.54 19.81C38.1033 19.81 39.2877 19.454 40.093 18.742L40.093 18.742L40.093 18.742C40.8977 18.0307 41.3 17.115 41.3 15.995L41.3 15.995L41.3 15.995C41.3 15.015 40.991 14.2217 40.373 13.615L40.373 13.615L40.373 13.615C39.7543 13.0083 38.78 12.5067 37.45 12.11L37.45 12.11L34.405 11.2L34.405 11.2C32.9117 10.7567 31.7393 10.1033 30.888 9.24L30.888 9.24L30.888 9.24C30.036 8.37666 29.61 7.21 29.61 5.74L29.61 5.74L29.61 5.74C29.61 4.85333 29.7793 4.054 30.118 3.342L30.118 3.342L30.118 3.342C30.456 2.63067 30.94 2.03 31.57 1.54L31.57 1.54L31.57 1.54C32.2 1.05 32.9527 0.67067 33.828 0.402L33.828 0.402L33.828 0.402C34.7027 0.134003 35.6883 0 36.785 0L36.785 0L36.785 0C37.7183 0 38.5877 0.0756683 39.393 0.226997L39.393 0.226997L39.393 0.226997C40.1977 0.378998 40.8977 0.589005 41.493 0.857002L41.493 0.857002L41.493 0.857002C42.0877 1.12567 42.5483 1.42333 42.875 1.75L42.875 1.75L42.875 1.75C43.2017 2.07667 43.365 2.415 43.365 2.765L43.365 2.765L43.365 2.765C43.365 3.09167 43.2833 3.37167 43.12 3.605L43.12 3.605L43.12 3.605C42.9567 3.83833 42.7467 4.025 42.49 4.165L42.49 4.165L42.49 4.165C41.8833 3.69833 41.096 3.29 40.128 2.94L40.128 2.94L40.128 2.94C39.1593 2.59 38.08 2.415 36.89 2.415L36.89 2.415L36.89 2.415C35.5133 2.415 34.4343 2.70667 33.653 3.29L33.653 3.29L33.653 3.29C32.871 3.87334 32.48 4.69 32.48 5.74L32.48 5.74L32.48 5.74C32.48 6.55667 32.76 7.22167 33.32 7.735L33.32 7.735L33.32 7.735C33.88 8.24833 34.8133 8.69167 36.12 9.065L36.12 9.065L38.255 9.695L38.255 9.695C40.0983 10.2317 41.551 10.984 42.613 11.952L42.613 11.952L42.613 11.952C43.6743 12.9207 44.205 14.2683 44.205 15.995L44.205 15.995L44.205 15.995C44.205 17.8383 43.54 19.3317 42.21 20.475L42.21 20.475L42.21 20.475C40.88 21.6183 38.99 22.19 36.54 22.19L36.54 22.19L36.54 22.19C35.4667 22.19 34.4927 22.0967 33.618 21.91L33.618 21.91L33.618 21.91C32.7427 21.7233 31.996 21.4783 31.378 21.175L31.378 21.175L31.378 21.175C30.7593 20.8717 30.281 20.539 29.943 20.177L29.943 20.177L29.943 20.177C29.6043 19.8157 29.435 19.46 29.435 19.11L29.435 19.11L29.435 19.11C29.435 18.7133 29.5577 18.3807 29.803 18.112L29.803 18.112L29.803 18.112C30.0477 17.844 30.3333 17.6517 30.66 17.535L30.66 17.535L30.66 17.535C30.9167 17.7917 31.2317 18.054 31.605 18.322L31.605 18.322L31.605 18.322C31.9783 18.5907 32.41 18.8357 32.9 19.057L32.9 19.057L32.9 19.057C33.39 19.279 33.9383 19.46 34.545 19.6L34.545 19.6L34.545 19.6C35.1517 19.74 35.8167 19.81 36.54 19.81L36.54 19.81ZM61.39 13.79L50.61 15.295L50.61 15.295C51.24 18.3517 53.2467 19.88 56.63 19.88L56.63 19.88L56.63 19.88C57.61 19.88 58.4967 19.7167 59.29 19.39L59.29 19.39L59.29 19.39C60.0833 19.0633 60.7133 18.7133 61.18 18.34L61.18 18.34L61.18 18.34C61.74 18.6667 62.02 19.11 62.02 19.67L62.02 19.67L62.02 19.67C62.02 19.9967 61.8744 20.3117 61.583 20.615L61.583 20.615L61.583 20.615C61.291 20.9184 60.8943 21.1867 60.393 21.42L60.393 21.42L60.393 21.42C59.891 21.6534 59.3077 21.84 58.643 21.98L58.643 21.98L58.643 21.98C57.9777 22.12 57.26 22.19 56.49 22.19L56.49 22.19L56.49 22.19C53.7834 22.19 51.6427 21.455 50.068 19.985L50.068 19.985L50.068 19.985C48.4927 18.515 47.705 16.3683 47.705 13.545L47.705 13.545L47.705 13.545C47.705 12.215 47.8977 11.0307 48.283 9.99202L48.283 9.99202L48.283 9.99202C48.6677 8.95402 49.2043 8.07335 49.893 7.35001L49.893 7.35001L49.893 7.35001C50.581 6.62668 51.4034 6.07235 52.36 5.68702L52.36 5.68702L52.36 5.68702C53.3167 5.30235 54.355 5.11002 55.475 5.11002L55.475 5.11002L55.475 5.11002C56.525 5.11002 57.4933 5.28502 58.38 5.63502L58.38 5.63502L58.38 5.63502C59.2667 5.98502 60.031 6.48068 60.673 7.12202L60.673 7.12202L60.673 7.12202C61.3143 7.76402 61.816 8.52235 62.178 9.39702L62.178 9.39702L62.178 9.39702C62.5394 10.2723 62.72 11.235 62.72 12.285L62.72 12.285L62.72 12.285C62.72 12.7983 62.6034 13.1657 62.37 13.387L62.37 13.387L62.37 13.387C62.1367 13.609 61.81 13.7433 61.39 13.79L61.39 13.79L61.39 13.79L61.39 13.79ZM55.44 7.38501L55.44 7.38501L55.44 7.38501C54.0167 7.38501 52.8383 7.88068 51.905 8.87201L51.905 8.87201L51.905 8.87201C50.9716 9.86401 50.4817 11.2817 50.435 13.125L50.435 13.125L60.06 11.795L60.06 11.795C59.9433 10.5117 59.4943 9.45567 58.713 8.62701L58.713 8.62701L58.713 8.62701C57.931 7.79901 56.84 7.38501 55.44 7.38501L55.44 7.38501ZM77.98 11.2L77.98 11.2L77.98 11.2C77.98 9.89335 77.6127 8.93668 76.878 8.33002L76.878 8.33002L76.878 8.33002C76.1427 7.72335 75.1567 7.42001 73.92 7.42001L73.92 7.42001L73.92 7.42001C72.9867 7.42001 72.1584 7.53668 71.435 7.77002L71.435 7.77002L71.435 7.77002C70.7117 8.00335 70.0934 8.27168 69.58 8.57501L69.58 8.57501L69.58 21.665L69.58 21.665C69.4633 21.7117 69.2884 21.764 69.055 21.822L69.055 21.822L69.055 21.822C68.8217 21.8807 68.565 21.91 68.285 21.91L68.285 21.91L68.285 21.91C67.2817 21.91 66.78 21.49 66.78 20.65L66.78 20.65L66.78 8.71502L66.78 8.71502C66.78 8.22502 66.8794 7.82235 67.078 7.50702L67.078 7.50702L67.078 7.50702C67.276 7.19235 67.62 6.88335 68.11 6.58002L68.11 6.58002L68.11 6.58002C68.7167 6.20669 69.5217 5.86835 70.525 5.56502L70.525 5.56502L70.525 5.56502C71.5284 5.26168 72.66 5.11002 73.92 5.11002L73.92 5.11002L73.92 5.11002C76.0433 5.11002 77.7177 5.58835 78.943 6.54501L78.943 6.54501L78.943 6.54501C80.1677 7.50169 80.78 9.00668 80.78 11.06L80.78 11.06L80.78 21.665L80.78 21.665C80.6634 21.7117 80.4827 21.764 80.238 21.822L80.238 21.822L80.238 21.822C79.9927 21.8807 79.7417 21.91 79.485 21.91L79.485 21.91L79.485 21.91C78.4817 21.91 77.98 21.49 77.98 20.65L77.98 20.65L77.98 11.2L77.98 11.2L77.98 11.2ZM97.44 17.43L97.44 17.43L97.44 17.43C97.44 18.9233 96.8917 20.09 95.795 20.93L95.795 20.93L95.795 20.93C94.6984 21.77 93.1117 22.19 91.035 22.19L91.035 22.19L91.035 22.19C90.1483 22.19 89.3317 22.114 88.585 21.962L88.585 21.962L88.585 21.962C87.8383 21.8107 87.2027 21.6124 86.678 21.367L86.678 21.367L86.678 21.367C86.1527 21.1224 85.7444 20.8423 85.453 20.527L85.453 20.527L85.453 20.527C85.161 20.2123 85.015 19.8917 85.015 19.565L85.015 19.565L85.015 19.565C85.015 19.285 85.091 19.0167 85.243 18.76L85.243 18.76L85.243 18.76C85.3943 18.5033 85.6217 18.2817 85.925 18.095L85.925 18.095L85.925 18.095C86.555 18.5617 87.29 18.9757 88.13 19.337L88.13 19.337L88.13 19.337C88.97 19.699 89.9267 19.88 91 19.88L91 19.88L91 19.88C93.4267 19.88 94.64 19.0633 94.64 17.43L94.64 17.43L94.64 17.43C94.64 16.1 93.835 15.2367 92.225 14.84L92.225 14.84L89.32 14.07L89.32 14.07C87.8967 13.6967 86.8584 13.154 86.205 12.442L86.205 12.442L86.205 12.442C85.5517 11.7307 85.225 10.815 85.225 9.69501L85.225 9.69501L85.225 9.69501C85.225 9.08835 85.3477 8.50502 85.593 7.94501L85.593 7.94501L85.593 7.94501C85.8377 7.38502 86.2167 6.89502 86.73 6.47501L86.73 6.47501L86.73 6.47501C87.2433 6.05502 87.8794 5.72235 88.638 5.47701L88.638 5.47701L88.638 5.47701C89.396 5.23235 90.2884 5.11002 91.315 5.11002L91.315 5.11002L91.315 5.11002C92.9483 5.11002 94.2667 5.34901 95.27 5.82702L95.27 5.82702L95.27 5.82702C96.2733 6.30568 96.775 6.86002 96.775 7.49001L96.775 7.49001L96.775 7.49001C96.775 7.79335 96.6993 8.06168 96.548 8.29501L96.548 8.29501L96.548 8.29501C96.396 8.52835 96.1917 8.70335 95.935 8.82001L95.935 8.82001L95.935 8.82001C95.515 8.54002 94.92 8.23669 94.15 7.91002L94.15 7.91002L94.15 7.91002C93.38 7.58335 92.47 7.42001 91.42 7.42001L91.42 7.42001L91.42 7.42001C90.37 7.42001 89.536 7.61835 88.918 8.01501L88.918 8.01501L88.918 8.01501C88.2993 8.41168 87.99 8.97168 87.99 9.69501L87.99 9.69501L87.99 9.69501C87.99 10.2317 88.165 10.6867 88.515 11.06L88.515 11.06L88.515 11.06C88.865 11.4333 89.4483 11.7133 90.265 11.9L90.265 11.9L92.68 12.495L92.68 12.495C94.2667 12.8917 95.4567 13.4807 96.25 14.262L96.25 14.262L96.25 14.262C97.0433 15.044 97.44 16.1 97.44 17.43L97.44 17.43ZM18.025 22.225L18.025 22.225L18.025 22.225C17.7683 22.225 17.535 22.155 17.325 22.015L17.325 22.015L17.325 22.015C17.115 21.875 16.8817 21.6767 16.625 21.42L16.625 21.42L14.84 19.565L14.84 19.565C14.07 20.3817 13.125 21.035 12.005 21.525L12.005 21.525L12.005 21.525C10.885 22.015 9.55499 22.26 8.015 22.26L8.015 22.26L8.015 22.26C6.80167 22.26 5.705 22.0907 4.72501 21.752L4.72501 21.752L4.72501 21.752C3.74501 21.414 2.905 20.9417 2.205 20.335L2.205 20.335L2.205 20.335C1.505 19.7283 0.962662 18.9873 0.578003 18.112L0.578003 18.112L0.578003 18.112C0.192673 17.2373 0 16.2633 0 15.19L0 15.19L0 15.19C0 13.5567 0.431671 12.1973 1.295 11.112L1.295 11.112L1.295 11.112C2.15833 10.0273 3.255 9.24 4.58501 8.75L4.58501 8.75L4.58501 8.75C4.02499 8.09667 3.605 7.455 3.325 6.825L3.325 6.825L3.325 6.825C3.045 6.195 2.905 5.50667 2.905 4.76L2.905 4.76L2.905 4.76C2.905 3.31334 3.38933 2.15833 4.358 1.295L4.358 1.295L4.358 1.295C5.326 0.431664 6.69667 0 8.47 0L8.47 0L8.47 0C9.70667 0 10.646 0.175003 11.288 0.525002L11.288 0.525002L11.288 0.525002C11.9293 0.875 12.25 1.31834 12.25 1.855L12.25 1.855L12.25 1.855C12.25 2.135 12.1743 2.38567 12.023 2.607L12.023 2.607L12.023 2.607C11.871 2.829 11.7017 2.99834 11.515 3.115L11.515 3.115L11.515 3.115C11.1417 2.905 10.7043 2.73 10.203 2.59L10.203 2.59L10.203 2.59C9.701 2.45 9.18167 2.38 8.645 2.38L8.645 2.38L8.645 2.38C7.75833 2.38 7.05833 2.59566 6.545 3.027L6.545 3.027L6.545 3.027C6.03168 3.459 5.77501 4.04833 5.77501 4.795L5.77501 4.795L5.77501 4.795C5.77501 5.51833 5.96167 6.16 6.33501 6.72L6.33501 6.72L6.33501 6.72C6.70834 7.28 7.24501 7.92167 7.94501 8.645L7.94501 8.645L14.525 15.505L14.525 15.505C14.8517 14.7583 15.1027 13.8717 15.278 12.845L15.278 12.845L15.278 12.845C15.4527 11.8183 15.54 10.6633 15.54 9.38L15.54 9.38L15.54 9.38C15.75 9.28667 15.966 9.21066 16.188 9.152L16.188 9.152L16.188 9.152C16.4093 9.094 16.625 9.065 16.835 9.065L16.835 9.065L16.835 9.065C17.7683 9.065 18.235 9.59 18.235 10.64L18.235 10.64L18.235 10.64C18.235 11.83 18.0833 13.0317 17.78 14.245L17.78 14.245L17.78 14.245C17.4767 15.4583 17.045 16.555 16.485 17.535L16.485 17.535L19.565 20.72L19.565 20.72C19.425 21.7233 18.9117 22.225 18.025 22.225L18.025 22.225ZM8.05002 19.88L8.05002 19.88L8.05002 19.88C8.86668 19.88 9.71835 19.7167 10.605 19.39L10.605 19.39L10.605 19.39C11.4917 19.0633 12.32 18.515 13.09 17.745L13.09 17.745L6.30002 10.64L6.30002 10.64C5.85667 10.78 5.42502 10.9723 5.00502 11.217L5.00502 11.217L5.00502 11.217C4.58502 11.4623 4.21768 11.7773 3.90302 12.162L3.90302 12.162L3.90302 12.162C3.58769 12.5473 3.33102 12.9967 3.13301 13.51L3.13301 13.51L3.13301 13.51C2.93436 14.0233 2.83502 14.595 2.83502 15.225L2.83502 15.225L2.83502 15.225C2.83502 16.625 3.29602 17.7506 4.21802 18.602L4.21802 18.602L4.21802 18.602C5.13936 19.454 6.41669 19.88 8.05002 19.88L8.05002 19.88Z" transform="translate(179.74698 66.66797)" id="Shape" fill="#000000" fill-rule="evenodd" stroke="none" />
          </g>
        </g>
      </g>
    </g>
    <g id="Ellipse">
      <use stroke="none" fill="#D3D3D3" fill-opacity="0" xlink:href="#path_2" fill-rule="evenodd" />
      <g clip-path="url(#clip_1)">
        <use xlink:href="#path_2" fill="none" stroke="#000000" stroke-width="12" />
      </g>
    </g>
  </g>
</svg>